# xmcd
#
# Track frame offsets: 
#        182
#        25615
#        48467
#        71780
#        99550
#        113682
#        137135
#        154267
#        176095
#
# Disc length: 2584 seconds
#
# Revision: 2
# Processed by: cddbd v1.5.2PL0 Copyright (c) Steve Scherf et al.
# Submitted via: ExactAudioCopy v1.3
#
DISCID=780a1609
DTITLE=Art Madison - Let It Flow
DYEAR=1990
DGENRE=Funk
TTITLE0=Don't Go Away
TTITLE1=Let It Flow
TTITLE2=Moon Lite Lover
TTITLE3=Let Me Be Yours Tonight
TTITLE4=You Shouldn't Do That To Me
TTITLE5=Flavor
TTITLE6=Fine Girl
TTITLE7=Girls
TTITLE8=Draw The Line
EXTD=more info - MillenniumMusicProjectFormat - SYNTAX=SongTitle{Subtit
EXTD=le}[miscInfo](Lyricist;Composer;Date,Artist,Location,State,Countr
EXTD=y)
EXTT0=
EXTT1=
EXTT2=
EXTT3=
EXTT4=
EXTT5=
EXTT6=
EXTT7=
EXTT8=
PLAYORDER=
